# This file uses centimeters as units for non-parametric coordinates.

mtllib Boat.mtl
g default
v -3.911265 0.000000 4.010557
v 2.982337 0.000000 4.010557
v -3.911265 0.526285 4.010557
v 2.982337 0.526285 4.010557
v -3.911265 0.526285 -7.940677
v 2.982337 0.526285 -7.940677
v -3.911265 0.000000 -7.940677
v 2.982337 0.000000 -7.940677
v -3.911265 0.526285 -7.940677
v 2.982337 0.526285 -7.940677
v 2.982337 0.000000 -7.940677
v -3.911265 0.000000 -7.940677
v -1.509209 0.526285 -9.949733
v 0.580282 0.526285 -9.949733
v 0.580282 0.000000 -9.949733
v -1.509209 0.000000 -9.949733
vt 0.375000 0.000000
vt 0.625000 0.000000
vt 0.375000 0.250000
vt 0.625000 0.250000
vt 0.375000 0.500000
vt 0.625000 0.500000
vt 0.375000 0.750000
vt 0.625000 0.750000
vt 0.375000 1.000000
vt 0.625000 1.000000
vt 0.875000 0.000000
vt 0.875000 0.250000
vt 0.125000 0.000000
vt 0.125000 0.250000
vt 0.375000 0.500000
vt 0.625000 0.500000
vt 0.625000 0.750000
vt 0.375000 0.750000
vt 0.375000 0.500000
vt 0.625000 0.500000
vt 0.625000 0.750000
vt 0.375000 0.750000
vn 0.000000 0.000000 1.000000
vn 0.000000 0.000000 1.000000
vn 0.000000 0.000000 1.000000
vn 0.000000 0.000000 1.000000
vn 0.000000 1.000000 0.000000
vn 0.000000 1.000000 0.000000
vn 0.000000 1.000000 0.000000
vn 0.000000 1.000000 0.000000
vn 0.000000 0.000000 -1.000000
vn 0.000000 0.000000 -1.000000
vn 0.000000 0.000000 -1.000000
vn 0.000000 0.000000 -1.000000
vn 0.000000 -1.000000 0.000000
vn 0.000000 -1.000000 0.000000
vn 0.000000 -1.000000 0.000000
vn 0.000000 -1.000000 0.000000
vn 1.000000 0.000000 0.000000
vn 1.000000 0.000000 0.000000
vn 1.000000 0.000000 0.000000
vn 1.000000 0.000000 0.000000
vn -1.000000 0.000000 0.000000
vn -1.000000 0.000000 0.000000
vn -1.000000 0.000000 0.000000
vn -1.000000 0.000000 0.000000
vn 0.000000 0.000000 0.000000
vn 0.000000 0.000000 0.000000
vn 0.000000 0.000000 0.000000
vn 0.000000 0.000000 0.000000
vn 0.000000 0.000000 0.000000
vn 0.000000 0.000000 0.000000
vn 0.000000 0.000000 0.000000
vn 0.000000 0.000000 0.000000
vn 0.000000 0.000000 0.000000
vn 0.000000 0.000000 0.000000
vn 0.000000 0.000000 0.000000
vn 0.000000 0.000000 0.000000
vn 0.000000 0.000000 0.000000
vn 0.000000 0.000000 0.000000
vn 0.000000 0.000000 0.000000
vn 0.000000 0.000000 0.000000
vn 0.000000 1.000000 0.000000
vn 0.000000 1.000000 0.000000
vn 0.000000 1.000000 0.000000
vn 0.000000 1.000000 -0.000000
vn 0.641567 0.000000 -0.767067
vn 0.641567 0.000000 -0.767067
vn 0.641567 0.000000 -0.767067
vn 0.641567 0.000000 -0.767067
vn 0.000000 -1.000000 0.000000
vn 0.000000 -1.000000 0.000000
vn 0.000000 -1.000000 0.000000
vn 0.000000 -1.000000 -0.000000
vn -0.641567 0.000000 -0.767067
vn -0.641567 0.000000 -0.767067
vn -0.641567 0.000000 -0.767067
vn -0.641567 0.000000 -0.767067
s 1
g pCube1
usemtl initialShadingGroup
f 1/1/1 2/2/2 3/3/3
f 3/3/3 2/2/2 4/4/4
s 2
f 3/3/5 4/4/6 5/5/7
f 5/5/7 4/4/6 6/6/8
s 3
f 13/19/9 14/20/10 16/22/11
f 16/22/11 14/20/10 15/21/12
s 4
f 7/7/13 8/8/14 1/9/15
f 1/9/15 8/8/14 2/10/16
s 5
f 2/2/17 8/11/18 4/4/19
f 4/4/19 8/11/18 6/12/20
s 6
f 7/13/21 1/1/22 5/14/23
f 5/14/23 1/1/22 3/3/24
s 7
f 9/15/25 5/5/26 10/16/27
f 5/5/26 6/6/28 10/16/27
s 8
f 10/16/29 6/6/30 11/17/31
f 6/6/30 8/8/32 11/17/31
s 9
f 11/17/33 8/8/34 12/18/35
f 8/8/34 7/7/36 12/18/35
s 10
f 12/18/37 7/7/38 9/15/39
f 7/7/38 5/5/40 9/15/39
s 11
f 9/15/41 10/16/42 13/19/43
f 13/19/43 10/16/42 14/20/44
s 12
f 10/16/45 11/17/46 14/20/47
f 14/20/47 11/17/46 15/21/48
s 13
f 11/17/49 12/18/50 15/21/51
f 15/21/51 12/18/50 16/22/52
s 14
f 12/18/53 9/15/54 16/22/55
f 16/22/55 9/15/54 13/19/56
g default
v -3.911265 0.000000 4.010557
v 2.982337 0.000000 4.010557
v -3.911265 0.526285 4.010557
v 2.982337 0.526285 4.010557
v -3.911265 0.526285 -7.940677
v 2.982337 0.526285 -7.940677
v -3.911265 0.000000 -7.940677
v 2.982337 0.000000 -7.940677
v -3.911265 0.526285 -7.940677
v 2.982337 0.526285 -7.940677
v 2.982337 0.000000 -7.940677
v -3.911265 0.000000 -7.940677
v -1.509209 0.526285 -9.949733
v 0.580282 0.526285 -9.949733
v 0.580282 0.000000 -9.949733
v -1.509209 0.000000 -9.949733
vt 0.375000 0.000000
vt 0.625000 0.000000
vt 0.375000 0.250000
vt 0.625000 0.250000
vt 0.375000 0.500000
vt 0.625000 0.500000
vt 0.375000 0.750000
vt 0.625000 0.750000
vt 0.375000 1.000000
vt 0.625000 1.000000
vt 0.875000 0.000000
vt 0.875000 0.250000
vt 0.125000 0.000000
vt 0.125000 0.250000
vt 0.375000 0.500000
vt 0.625000 0.500000
vt 0.625000 0.750000
vt 0.375000 0.750000
vt 0.375000 0.500000
vt 0.625000 0.500000
vt 0.625000 0.750000
vt 0.375000 0.750000
vn 0.000000 0.000000 1.000000
vn 0.000000 0.000000 1.000000
vn 0.000000 0.000000 1.000000
vn 0.000000 0.000000 1.000000
vn 0.000000 1.000000 0.000000
vn 0.000000 1.000000 0.000000
vn 0.000000 1.000000 0.000000
vn 0.000000 1.000000 0.000000
vn 0.000000 0.000000 -1.000000
vn 0.000000 0.000000 -1.000000
vn 0.000000 0.000000 -1.000000
vn 0.000000 0.000000 -1.000000
vn 0.000000 -1.000000 0.000000
vn 0.000000 -1.000000 0.000000
vn 0.000000 -1.000000 0.000000
vn 0.000000 -1.000000 0.000000
vn 1.000000 0.000000 0.000000
vn 1.000000 0.000000 0.000000
vn 1.000000 0.000000 0.000000
vn 1.000000 0.000000 0.000000
vn -1.000000 0.000000 0.000000
vn -1.000000 0.000000 0.000000
vn -1.000000 0.000000 0.000000
vn -1.000000 0.000000 0.000000
vn 0.000000 0.000000 0.000000
vn 0.000000 0.000000 0.000000
vn 0.000000 0.000000 0.000000
vn 0.000000 0.000000 0.000000
vn 0.000000 0.000000 0.000000
vn 0.000000 0.000000 0.000000
vn 0.000000 0.000000 0.000000
vn 0.000000 0.000000 0.000000
vn 0.000000 0.000000 0.000000
vn 0.000000 0.000000 0.000000
vn 0.000000 0.000000 0.000000
vn 0.000000 0.000000 0.000000
vn 0.000000 0.000000 0.000000
vn 0.000000 0.000000 0.000000
vn 0.000000 0.000000 0.000000
vn 0.000000 0.000000 0.000000
vn 0.000000 1.000000 0.000000
vn 0.000000 1.000000 0.000000
vn 0.000000 1.000000 0.000000
vn 0.000000 1.000000 -0.000000
vn 0.641567 0.000000 -0.767067
vn 0.641567 0.000000 -0.767067
vn 0.641567 0.000000 -0.767067
vn 0.641567 0.000000 -0.767067
vn 0.000000 -1.000000 0.000000
vn 0.000000 -1.000000 0.000000
vn 0.000000 -1.000000 0.000000
vn 0.000000 -1.000000 -0.000000
vn -0.641567 0.000000 -0.767067
vn -0.641567 0.000000 -0.767067
vn -0.641567 0.000000 -0.767067
vn -0.641567 0.000000 -0.767067
s 1
g pCube1
f 17/23/57 18/24/58 19/25/59
f 19/25/59 18/24/58 20/26/60
s 2
f 19/25/61 20/26/62 21/27/63
f 21/27/63 20/26/62 22/28/64
s 3
f 29/41/65 30/42/66 32/44/67
f 32/44/67 30/42/66 31/43/68
s 4
f 23/29/69 24/30/70 17/31/71
f 17/31/71 24/30/70 18/32/72
s 5
f 18/24/73 24/33/74 20/26/75
f 20/26/75 24/33/74 22/34/76
s 6
f 23/35/77 17/23/78 21/36/79
f 21/36/79 17/23/78 19/25/80
s 7
f 25/37/81 21/27/82 26/38/83
f 21/27/82 22/28/84 26/38/83
s 8
f 26/38/85 22/28/86 27/39/87
f 22/28/86 24/30/88 27/39/87
s 9
f 27/39/89 24/30/90 28/40/91
f 24/30/90 23/29/92 28/40/91
s 10
f 28/40/93 23/29/94 25/37/95
f 23/29/94 21/27/96 25/37/95
s 11
f 25/37/97 26/38/98 29/41/99
f 29/41/99 26/38/98 30/42/100
s 12
f 26/38/101 27/39/102 30/42/103
f 30/42/103 27/39/102 31/43/104
s 13
f 27/39/105 28/40/106 31/43/107
f 31/43/107 28/40/106 32/44/108
s 14
f 28/40/109 25/37/110 32/44/111
f 32/44/111 25/37/110 29/41/112
